PathFileType	4	(X/Y/Z)	RBDS019\RBDS019runT45.trc
DataRate	CameraRate	NumFrames	NumMarkers	Units	OrigDataRate	OrigDataStartFrame	OrigNumFrames
150.000000	150.000000	4	33	mm	150.000000	2250	4500
Frame#	Time	L.ASIS			L.Heel.Bottom			L.Heel.Lateral			L.Heel.Top			L.Iliac.Crest			L.MT1			L.MT5			L.PSIS			L.Shank.Bottom.Lateral			L.Shank.Bottom.Medial			L.Shank.Top.Lateral			L.Shank.Top.Medial			L.Thigh.Bottom.Lateral			L.Thigh.Bottom.Medial			L.Thigh.Top.Lateral			L.Thigh.Top.Medial			R.ASIS			R.ASY			R.Heel.Bottom			R.Heel.Lateral			R.Heel.Top			R.Iliac.Crest			R.MT1			R.MT5			R.PSIS			R.Shank.Bottom.Lateral			R.Shank.Bottom.Medial			R.Shank.Top.Lateral			R.Shank.Top.Medial			R.Thigh.Bottom.Lateral			R.Thigh.Bottom.Medial			R.Thigh.Top.Lateral			R.Thigh.Top.Medial			
		X1	Y1	Z1	X2	Y2	Z2	X3	Y3	Z3	X4	Y4	Z4	X5	Y5	Z5	X6	Y6	Z6	X7	Y7	Z7	X8	Y8	Z8	X9	Y9	Z9	X10	Y10	Z10	X11	Y11	Z11	X12	Y12	Z12	X13	Y13	Z13	X14	Y14	Z14	X15	Y15	Z15	X16	Y16	Z16	X17	Y17	Z17	X18	Y18	Z18	X19	Y19	Z19	X20	Y20	Z20	X21	Y21	Z21	X22	Y22	Z22	X23	Y23	Z23	X24	Y24	Z24	X25	Y25	Z25	X26	Y26	Z26	X27	Y27	Z27	X28	Y28	Z28	X29	Y29	Z29	X30	Y30	Z30	X31	Y31	Z31	X32	Y32	Z32	X33	Y33	Z33	

2251	15	2344.191392756575	911.9755128068806	958.7503394562131	2160.059620054724	31.64619733190846	1025.953141740627	2189.892947334106	50.43106569812402	982.0984685388383	2173.964634755097	78.16179270031208	1028.315284832575	2276.820455171353	948.7937200567785	930.1349065133318	2366.40409492426	41.79131026704905	1057.19255814697	2331.586631872488	37.24655341446793	951.2133788485287	2183.095409943145	923.0108462227636	1050.883846405658	2270.630299548096	151.1298869869729	963.6056700168051	2233.309138217225	169.1575354390254	993.7761657696274	2290.909561320867	226.3907498939444	939.6288066288347	2256.008025290638	248.3326758964211	973.58431978176	2357.61616156961	544.4238603145446	900.9927429030701	2303.164664730338	525.7857333832856	945.8290855974161	2313.617207850338	643.7266444588078	888.0774083775881	2261.823842447985	626.0182004520407	931.2495218509484	2368.278929482025	873.2814490001218	1187.889802289539	nan	nan	nan	2009.546799455373	646.2455339494165	1097.698845507078	2014.707491676723	615.4576005829281	1138.774725811093	2047.108772602086	620.9315211942974	1097.560875924062	2323.643805280378	937.6224214826432	1220.951331403554	1955.874790470424	453.9718734712599	1062.214854212989	1952.86636109755	485.0994034078811	1166.676235945602	2200.119823279762	914.4098020067829	1148.578320913103	2104.358353153195	535.256111099435	1158.916465771053	2122.745219004813	572.2024029614774	1121.5359556832	2181.975116544919	518.1087380309416	1178.003530948927	2198.562574865081	552.3050310416108	1139.512646475842	2361.142061946804	491.711890493777	1218.274283012742	2316.13172759074	491.3580553244088	1173.591322829758	2321.33645143583	592.6378443824794	1237.379755329168	2270.314815765403	578.9764391940014	1194.486234205403	
2252	15.00666666666667	2343.601396707922	913.107060023596	958.8084617580599	2129.864655081492	33.37513613902509	1025.850534052734	2159.751486549744	51.92769147620699	981.8733726928768	2143.6807497009	79.88532750048847	1027.807477044211	2274.263630946075	951.1268301018538	929.8937142384918	2335.548062032523	43.02788026339925	1056.781758768859	2300.869669502376	37.97002962596925	951.0995081768444	2181.937486269328	924.9091044013622	1050.29981752125	2242.930516953232	152.123045455436	963.0133224493404	2206.218083014465	171.539472591094	993.0719123993393	2266.05417598234	226.4676854889387	938.9144015861755	2231.953742722627	249.7236968681592	972.7939872653473	2344.410568354737	542.1612620340969	900.1788836818594	2289.007488069039	525.771697195924	944.7822166956579	2304.501291269616	643.1998169581104	887.6066271592408	2251.942099812785	627.6478112527125	930.7946336258804	2364.955748806471	874.3305469395042	1189.290657297071	nan	nan	nan	2020.019742255727	638.1283208268164	1101.331857639587	2026.988495810781	606.8619021508055	1141.885983933139	2058.688839751641	614.734347168982	1100.505021540316	2317.048786277598	937.5959246403421	1222.261101256592	1975.880236751615	444.2900207099187	1062.633726032849	1972.050755564319	473.1584085666664	1167.785076116374	2197.423231030446	915.0472528864397	1146.984542911571	2120.204780041012	529.9168446091492	1160.3009188234	2137.017353647188	568.5282622323959	1124.024106448591	2198.33916786588	515.6682386366366	1179.331272155718	2213.436992235466	551.4848518553971	1141.936869462431	2378.561275051262	497.2742024726917	1218.51735643672	2333.591751453451	494.0587857952778	1174.423139050628	2332.727616274322	595.6315757106072	1237.716532282767	2281.928607820738	578.4605404035784	1195.71506353366	
2253	15.01333333333333	2343.446744079003	914.4279186373554	959.1398403829784	2099.591998663387	35.67565437496891	1025.789782110273	2129.620421339575	53.82240072567038	981.6918228789586	2113.480731401595	82.14676063651427	1027.329718531678	2272.468055854492	954.3351624122058	929.4691161673526	2304.710834628161	43.91170966057266	1056.411439051065	2270.093762134822	38.45172295851689	951.0667001935332	2181.233248386043	927.364492942165	1048.975480122944	2214.841349172519	153.5256312160457	962.6045392186728	2178.775658767943	174.1440793618465	992.6338048160467	2240.477726103678	226.9346146150337	938.4484056180751	2207.228371271792	251.3287967490198	972.3310366796744	2330.412398329142	540.3749462243055	899.7750506779781	2273.859488884862	526.4569878128833	943.8229700247214	2295.076907437164	643.162146202861	887.4302276185039	2241.581110728428	629.9917820444614	930.3800145278755	2361.884167429527	876.5754708415149	1190.837717463039	nan	nan	nan	2029.000869475653	628.0337748009349	1104.279690239939	2037.979107371363	596.6905075825117	1144.431234449462	2068.847656905974	606.9654966667528	1102.898837169302	2310.754712037987	938.7331304602955	1223.334156223132	1996.039613783295	432.6965859173957	1063.281069933338	1991.172794342601	459.7718514972044	1168.878623226523	2195.083937062995	916.6964201289727	1144.915128985623	2135.061081148343	523.8647033901544	1161.41352866208	2149.866947506187	564.1917297460905	1126.250979185598	2213.674484027102	513.2760362201373	1180.406006055302	2226.889445263845	550.7697158852599	1144.129369997227	2395.796962862635	504.7855579950751	1218.692067711707	2350.840030412344	498.3165021919853	1174.934666628158	2344.276177613559	600.2969028812018	1237.968834434848	2293.867535618481	579.782501510114	1196.825122316141	
2254	15.02	2343.732597455953	915.7878276332777	959.6409475217822	2069.330342595154	38.77342102057	1025.765545122814	2099.608160067311	56.2905473893898	981.5575730001618	2083.536186771401	85.14220323064627	1026.892966871625	2271.658596043057	958.0693300945173	928.8494540222158	2273.949673347285	44.34886977711708	1056.121961959008	2239.313838885782	38.67251065434869	951.1188729254548	2180.975564413246	930.2029962145892	1046.926039960211	2186.582702838911	155.5163129582124	962.3886332148275	2151.189112210542	177.1549511306968	992.4861804239039	2214.404978262988	228.021510782864	938.2409182695816	2182.048018519276	253.3756262691749	972.2215431653556	2315.835094282805	539.2273885266579	899.7690762434556	2258.055620076296	527.9797930347116	943.0447628042981	2285.45485625799	643.6822030227389	887.5262073120964	2230.952304435168	633.0904065614313	930.0549271647303	2359.185605903795	879.9342625598249	1192.399639318699	nan	nan	nan	2036.86226447674	615.9605335992876	1106.495575481052	2048.016138898495	584.9800246672282	1146.362924752506	2077.893699759148	597.5935440858493	1104.684382191469	2305.114138074061	940.9869632823569	1224.082916177583	2016.533865349585	419.4290584608354	1064.19296501992	2010.452857895511	445.2101988472897	1169.99121073097	2193.165195178675	919.2279300593466	1142.44066899938	2149.104618187318	517.1688775352077	1162.229463409021	2161.495517298116	559.1346558466512	1128.118464403886	2228.067889929042	510.9318100267031	1181.1978277052	2239.028615833864	550.026555376997	1145.975747199531	2412.528733612596	514.0098548450379	1218.765646997639	2367.592046648836	503.9753754712095	1175.089140600606	2355.725179795619	606.469817628977	1238.108864402219	2305.874649561774	582.8413716000086	1197.732797812537	
